<svg id="Layer_1" data-name="Layer 1" xmlns="http://www.w3.org/2000/svg" viewBox="0 0 609.19 252.37"><defs><style>.cls-1{fill:#52a6e3;}.cls-2{fill:#403d58;}.cls-3{fill:#cbe3ef;}</style></defs><title>hygieArtboard 1</title><path class="cls-1" d="M238.44,94.44h17.67v80.05H238.44Z"/><path class="cls-2" d="M288.21,200.46a34,34,0,0,1-10.08,1.19,37,37,0,0,1-12.42-2.14L268,185.05a18.15,18.15,0,0,0,7.28,1.7,16.91,16.91,0,0,0,5.25-.63,7.87,7.87,0,0,0,3-1.81,9.65,9.65,0,0,0,2-2.87c.51-1.13,1.08-2.42,1.71-3.88l1.21-3.17-24.07-54.83h18.33l14.13,35.92H297l12.09-35.92h17.45l-24.9,63.87c-1.14,2.95-2.23,5.55-3.28,7.82a18.71,18.71,0,0,1-4,5.71A15.67,15.67,0,0,1,288.21,200.46Z"/><path class="cls-2" d="M374.62,167.92q-5.56,7.23-17.53,7.23A26.5,26.5,0,0,1,347,173.08q-5.06-2.07-10.62-7.92t-5.56-17.89a31.2,31.2,0,0,1,7.07-20.56q7.06-8.53,17.66-8.53,10.39,0,14.37,3.56a34.64,34.64,0,0,1,5,5.05v-7.23H391.8v50.29q0,31.8-32.5,31.8-17.87,0-28.17-8.05l9.39-14q8.93,7.16,17.68,7.16T371,183a13,13,0,0,0,3.89-9.71v-5.32Zm-22.69-30.78a12.94,12.94,0,0,0,0,19.05,13.91,13.91,0,0,0,10,4.06,11.84,11.84,0,0,0,9.37-4,14.78,14.78,0,0,0,0-19.15,11.83,11.83,0,0,0-9.37-4A13.9,13.9,0,0,0,351.93,137.14Z"/><path class="cls-2" d="M405.5,108.6a9.95,9.95,0,0,1,0-13.41,8.67,8.67,0,0,1,6.65-2.79,9.5,9.5,0,0,1,6.9,2.79,9.33,9.33,0,0,1,0,13.41,9.5,9.5,0,0,1-6.9,2.79A8.67,8.67,0,0,1,405.5,108.6Zm-1.83,11h16.95v54.93H403.67Z"/><path class="cls-2" d="M461.42,162.34q7.33,0,12.15-6.29l11.87,8.43a27.57,27.57,0,0,1-10.3,8.41,29.06,29.06,0,0,1-12.73,3,34.87,34.87,0,0,1-12.11-2.05,28.51,28.51,0,0,1-9.72-5.84,27.45,27.45,0,0,1-6.49-9.14q-2.37-5.34-2.37-15.21T440.41,126a30.71,30.71,0,0,1,21.23-7.79q12.48,0,19.43,7.89T488,147v5.35H448.67a12.3,12.3,0,0,0,4.39,7.29A13,13,0,0,0,461.42,162.34Zm.11-32.62q-6.07,0-9.36,3.26a11.41,11.41,0,0,0-3.5,7.83h22.41a10.8,10.8,0,0,0-2.84-7.83A8.85,8.85,0,0,0,461.53,129.72Z"/><rect class="cls-1" x="185.56" y="94.44" width="17.67" height="80.05" rx="3.27"/><rect class="cls-1" x="185.59" y="92.1" width="17.7" height="80.05" rx="3.27" transform="translate(62.32 326.56) rotate(-90)"/><path class="cls-3" d="M234.46,168.87a54.37,54.37,0,1,1,0-73.5V89.22a2.55,2.55,0,0,1,.13-.78,59.36,59.36,0,1,0-.13,87.49Z"/></svg>